<?xml version="1.0" encoding="UTF-8"?><svg xmlns="http://www.w3.org/2000/svg" viewBox="0 0 39.27 32.88"><defs><style>.d{fill:#bcbec0;}</style></defs><g id="a"/><g id="b"><g id="c"><g><rect class="d" x="33.4" y="1.11" width="5.71" height="4.13" rx=".87" ry=".87" transform="translate(17.02 -27.72) rotate(53.1)"/><path class="d" d="M32.17,8.71c-.85,1.33-4.24,4.48-5.93,6.05-3.25,3.02-3.94,3.7-4.13,4.82l-.2,1.17-13.05,9.79-3.26-4.34-3.26-4.36L15.38,12.05l1.17,.14c1.13,.13,1.98-.34,5.78-2.62,1.98-1.19,5.94-3.56,7.46-4.01l1.19,1.58,1.19,1.58m2.42,.11c0-.51-.17-1-.47-1.4l-1.27-1.69-1.27-1.69c-.32-.42-.76-.72-1.27-.86-2.11-.56-12.49,6.8-13.48,6.68l-1.17-.14c-.6-.07-1.2,.09-1.68,.45L.94,19.97C.32,20.43,0,21.14,0,21.85c0,.49,.15,.98,.47,1.4l3.26,4.34,3.26,4.34c.78,1.03,2.24,1.24,3.28,.47l13.04-9.79c.48-.36,.8-.89,.9-1.49l.19-1.17c.16-.99,10.13-8.9,10.18-11.08,0-.02,0-.04,0-.06h0Z"/></g></g></g></svg>