<?xml version="1.0" encoding="UTF-8"?><svg xmlns="http://www.w3.org/2000/svg" xmlns:xlink="http://www.w3.org/1999/xlink" viewBox="0 0 53.5 39.77"><defs><style>.j{fill:#988971;}.k{fill:#a19077;}.l{fill:#785f3c;}.m{fill:#bfac92;}.n{isolation:isolate;}.o{fill:url(#h);opacity:.2;}.o,.p,.q,.r,.s,.t{mix-blend-mode:multiply;}.u{fill:#9a8569;}.p{fill:url(#e);}.p,.r,.s{opacity:.15;}.q{fill:url(#i);opacity:.3;}.v{fill:#c8b59c;}.w{fill:#a38b70;}.r{fill:url(#d);}.x{fill:#c9b59d;}.s{fill:url(#f);}.t{fill:url(#g);opacity:.5;}</style><linearGradient id="d" x1="35.36" y1="33.91" x2="29.7" y2="18.37" gradientTransform="matrix(1, 0, 0, 1, 0, 0)" gradientUnits="userSpaceOnUse"><stop offset=".11" stop-color="#57412d"/><stop offset=".22" stop-color="#5a4531"/><stop offset=".34" stop-color="#65513f"/><stop offset=".47" stop-color="#776555"/><stop offset=".6" stop-color="#908275"/><stop offset=".74" stop-color="#b1a69d"/><stop offset=".88" stop-color="#d8d3ce"/><stop offset="1" stop-color="#fff"/></linearGradient><linearGradient id="e" x1="8.64" y1="33.77" x2="16.28" y2="20.53" gradientTransform="matrix(1, 0, 0, 1, 0, 0)" gradientUnits="userSpaceOnUse"><stop offset="0" stop-color="#57412d"/><stop offset=".15" stop-color="#827263"/><stop offset=".3" stop-color="#a89d92"/><stop offset=".45" stop-color="#c7c0b9"/><stop offset=".59" stop-color="#dfdbd8"/><stop offset=".73" stop-color="#f1efed"/><stop offset=".87" stop-color="#fbfbfa"/><stop offset="1" stop-color="#fff"/></linearGradient><linearGradient id="f" x1="17.46" y1="14.53" x2="17.46" y2="0" gradientTransform="matrix(1, 0, 0, 1, 0, 0)" gradientUnits="userSpaceOnUse"><stop offset="0" stop-color="#57412d"/><stop offset="0" stop-color="#594330"/><stop offset=".15" stop-color="#847466"/><stop offset=".3" stop-color="#aa9f95"/><stop offset=".45" stop-color="#c8c1bb"/><stop offset=".59" stop-color="#e0dcd8"/><stop offset=".73" stop-color="#f1efee"/><stop offset=".87" stop-color="#fbfbfa"/><stop offset="1" stop-color="#fff"/></linearGradient><linearGradient id="g" x1="9.51" y1="22.25" x2="9.51" y2="6.3" gradientTransform="matrix(1, 0, 0, 1, 0, 0)" gradientUnits="userSpaceOnUse"><stop offset="0" stop-color="#57412d"/><stop offset="0" stop-color="#5b4632"/><stop offset=".06" stop-color="#7d6c5d"/><stop offset=".11" stop-color="#9c8f84"/><stop offset=".17" stop-color="#b7ada5"/><stop offset=".24" stop-color="#cdc7c1"/><stop offset=".32" stop-color="#dfdbd8"/><stop offset=".4" stop-color="#edebe9"/><stop offset=".51" stop-color="#f7f6f5"/><stop offset=".65" stop-color="#fdfdfd"/><stop offset="1" stop-color="#fff"/></linearGradient><linearGradient id="h" x1="41.86" y1="14.77" x2="41.86" y2=".44" gradientTransform="matrix(1, 0, 0, 1, 0, 0)" gradientUnits="userSpaceOnUse"><stop offset="0" stop-color="#57412d"/><stop offset=".04" stop-color="#6b5746"/><stop offset=".12" stop-color="#8d7e71"/><stop offset=".2" stop-color="#aca197"/><stop offset=".29" stop-color="#c5beb7"/><stop offset=".39" stop-color="#dad6d1"/><stop offset=".49" stop-color="#eae8e5"/><stop offset=".61" stop-color="#f6f5f4"/><stop offset=".75" stop-color="#fdfcfc"/><stop offset="1" stop-color="#fff"/></linearGradient><linearGradient id="i" x1="31.99" y1="26.97" x2="40.54" y2="3.51" gradientTransform="matrix(1, 0, 0, 1, 0, 0)" gradientUnits="userSpaceOnUse"><stop offset=".17" stop-color="#57412d"/><stop offset=".24" stop-color="#766454"/><stop offset=".34" stop-color="#9a8d81"/><stop offset=".43" stop-color="#b9b0a8"/><stop offset=".53" stop-color="#d2ccc7"/><stop offset=".64" stop-color="#e6e2e0"/><stop offset=".74" stop-color="#f4f2f1"/><stop offset=".86" stop-color="#fcfcfb"/><stop offset="1" stop-color="#fff"/></linearGradient></defs><g class="n"><g id="a"/><g id="b"><g id="c"><g><path class="m" d="M19.03,22.25c.06,.18,0,17.52,0,17.52l27.88-10.06V14.91l-27.88,7.34Z"/><path class="r" d="M19.03,22.25c.06,.18,0,17.52,0,17.52l27.88-10.06V14.91l-27.88,7.34Z"/><polygon class="k" points="19.03 22.25 19.03 39.77 5.89 29.47 5.89 14.53 19.03 22.25"/><polygon class="p" points="19.03 22.25 19.03 39.77 5.89 29.47 5.89 14.53 19.03 22.25"/><polygon class="w" points="5.89 14.53 32.05 9.11 46.9 14.91 19.03 22.25 5.89 14.53"/><polygon class="v" points="32.05 9.11 28.29 0 2.87 4.14 5.89 14.53 32.05 9.11"/><polygon class="s" points="32.05 9.11 28.29 0 2.87 4.14 5.89 14.53 32.05 9.11"/><polygon class="j" points="0 6.3 5.89 14.53 19.03 22.25 12.16 12.13 0 6.3"/><polygon class="t" points="0 6.3 5.89 14.53 19.03 22.25 12.16 12.13 0 6.3"/><polygon class="u" points="32.05 9.11 37.02 .44 51.67 4.62 46.56 14.77 32.05 9.11"/><polygon class="o" points="32.05 9.11 37.02 .44 51.67 4.62 46.56 14.77 32.05 9.11"/><path class="x" d="M19.03,22.25s5.67-7.63,5.8-7.72c.13-.09,28.67-6.3,28.67-6.3l-6.6,6.69-27.88,7.34Z"/><path class="q" d="M19.03,22.25s5.67-7.63,5.8-7.72c.13-.09,28.67-6.3,28.67-6.3l-6.6,6.69-27.88,7.34Z"/><polygon class="l" points="32.05 9.11 32.05 12.92 38.29 11.55 32.05 9.11"/></g></g></g></g></svg>