<?xml version="1.0" encoding="UTF-8"?><svg xmlns="http://www.w3.org/2000/svg" viewBox="0 0 11.32 17.5"><defs><style>.d{fill:#939598;fill-rule:evenodd;}</style></defs><g id="a"/><g id="b"><g id="c"><g><path class="d" d="M10.79,1.16h-3.31V.32c0-.21-.11-.32-.32-.32h-2.88c-.21,0-.32,.11-.32,.32v.84H.54c-.32,0-.54,.21-.54,.53v1.71H11.32V1.69c0-.32-.22-.53-.53-.53Z"/><path class="d" d="M.11,5.65l.64,11.1c0,.43,.43,.75,.85,.75H9.72c.43,0,.85-.32,.85-.75l.53-11.1H.11ZM4.86,14.51c0,.21-.21,.32-.42,.32h-1.77c-.21,0-.32-.11-.32-.32v-6.48c0-.11,.11-.32,.32-.32h1.77c.22,0,.42,.22,.42,.32v6.48Zm4.38,0c0,.21-.11,.32-.33,.32h-1.88c-.11,0-.32-.11-.32-.32v-6.48c0-.11,.21-.32,.32-.32h1.88c.22,0,.33,.22,.33,.32v6.48Z"/></g></g></g></svg>