<?xml version="1.0" encoding="UTF-8"?><svg id="Layer_2" xmlns="http://www.w3.org/2000/svg" viewBox="0 0 7.46 9.52"><defs><style>.cls-1{fill:#6d6e71;}</style></defs><g id="Layer_1-2"><path class="cls-1" d="M2.29,9.2c.16-.32,.3-.64,.41-.97,.13-.35,.19-.62,.19-.81-.21,.12-.43,.22-.66,.3-.24,.09-.47,.14-.67,.15-.34,.02-.67-.1-.97-.37-.4-.36-.6-.88-.6-1.56,0-.49,.26-1.15,.78-1.98,.49-.76,1.47-2.08,2.95-3.97,1.42,1.75,2.4,3.09,2.95,4.01,.51,.83,.76,1.51,.76,2.05-.03,.53-.19,.94-.47,1.24-.29,.29-.69,.45-1.21,.46-.2,0-.4-.04-.61-.11-.21-.06-.4-.15-.57-.27,0,.24,.05,.51,.16,.79,.09,.27,.25,.59,.46,.99v.35H2.29v-.32Zm2.03-.45c-.13-.23-.23-.48-.3-.76-.07-.26-.11-.52-.13-.77,0-.21,.05-.38,.14-.48,.08-.1,.2-.15,.35-.15,.03,0,.07,.01,.13,.04,.03,.01,.08,.04,.15,.09,.16,.1,.31,.17,.43,.21,.2,.09,.42,.15,.64,.18,.21,.03,.42-.04,.62-.2,.25-.2,.38-.49,.38-.88-.04-.57-.31-1.25-.79-2.03-.3-.48-.87-1.26-1.71-2.33l-.47-.6-.37,.43c-.77,.93-1.34,1.66-1.71,2.19-.64,.95-.97,1.68-.99,2.21,0,.38,.08,.68,.23,.91,.15,.24,.37,.38,.64,.4,.16,0,.39-.06,.69-.19,.17-.09,.42-.23,.75-.43,.21-.03,.35,0,.44,.1,.09,.1,.12,.28,.12,.55-.02,.25-.06,.5-.13,.75-.06,.24-.14,.51-.25,.81v.09h1.13v-.12Z"/></g></svg>