<svg xmlns="http://www.w3.org/2000/svg" width="28" height="20" viewBox="0 0 28 20">
  <g id="Union_4" data-name="Union 4" transform="translate(3824 1492)" fill="#fff">
    <path d="M -3796.5 -1472.500366210938 L -3811.5 -1472.500366210938 L -3811.5 -1479.500366210938 L -3796.5 -1479.500366210938 L -3796.5 -1472.500366210938 Z M -3816.5 -1472.500366210938 L -3823.500244140625 -1472.500366210938 L -3823.500244140625 -1479.500366210938 L -3816.5 -1479.500366210938 L -3816.5 -1472.500366210938 Z M -3796.5 -1484.500366210938 L -3811.5 -1484.500366210938 L -3811.5 -1491.50048828125 L -3796.5 -1491.50048828125 L -3796.5 -1484.500366210938 Z M -3816.5 -1484.500366210938 L -3823.500244140625 -1484.500366210938 L -3823.500244140625 -1491.50048828125 L -3816.5 -1491.50048828125 L -3816.5 -1484.500366210938 Z" stroke="none"/>
    <path d="M -3797 -1473.000366210938 L -3797 -1479.000366210938 L -3811 -1479.000366210938 L -3811 -1473.000366210938 L -3797 -1473.000366210938 M -3817 -1473.000366210938 L -3817 -1479.000366210938 L -3823.000244140625 -1479.000366210938 L -3823.000244140625 -1473.000366210938 L -3817 -1473.000366210938 M -3797 -1485.000366210938 L -3797 -1491.00048828125 L -3811 -1491.00048828125 L -3811 -1485.000366210938 L -3797 -1485.000366210938 M -3817 -1485.000366210938 L -3817 -1491.00048828125 L -3823.000244140625 -1491.00048828125 L -3823.000244140625 -1485.000366210938 L -3817 -1485.000366210938 M -3796 -1472.000366210938 L -3812 -1472.000366210938 L -3812 -1480.000366210938 L -3796 -1480.000366210938 L -3796 -1472.000366210938 Z M -3816 -1472.000366210938 L -3824.000244140625 -1472.000366210938 L -3824.000244140625 -1480.000366210938 L -3816 -1480.000366210938 L -3816 -1472.000366210938 Z M -3796 -1484.000366210938 L -3812 -1484.000366210938 L -3812 -1492.00048828125 L -3796 -1492.00048828125 L -3796 -1484.000366210938 Z M -3816 -1484.000366210938 L -3824.000244140625 -1484.000366210938 L -3824.000244140625 -1492.00048828125 L -3816 -1492.00048828125 L -3816 -1484.000366210938 Z" stroke="none" fill="#c9c9c9"/>
  </g>
</svg>
