<svg xmlns="http://www.w3.org/2000/svg" viewBox="0 0 35.22 28.77"><defs><style>.cls-1{fill:#bcbec0;}</style></defs><title>Asset 1</title><g id="Layer_2" data-name="Layer 2"><g id="Layer_1-2" data-name="Layer 1"><path class="cls-1" d="M31.1,5c-.21-.35-.24-.53-1-.56H24.86V0H0V20H.33l.26,1.48a5.07,5.07,0,1,0,9.07,0h13v-.06H24a5.07,5.07,0,1,0,9,0h2a.22.22,0,0,0,.22-.23h0V12.66ZM22.92,1.94V4.79a.69.69,0,0,0-.16.32L22.7,18H1.94V1.94ZM32.63,19.1s-4.61-2-7.35-1.26L25.22,7.2c0-.22.05-.35.21-.36h3.83c.35,0,.47,0,.7.47l2.67,5.28Z"/></g></g></svg>