<svg xmlns="http://www.w3.org/2000/svg" viewBox="0 0 26.56 26.39"><defs><style>.cls-1{fill:#bcbec0;fill-rule:evenodd;}</style></defs><title>Asset 4</title><g id="Layer_2" data-name="Layer 2"><g id="Layer_1-2" data-name="Layer 1"><path class="cls-1" d="M17.21,1.1A1.59,1.59,0,0,0,15.75,0a1.67,1.67,0,0,0-1.47.73L10.43,6.05l15,19.25L8.78,8.24l-5.5,7.34a2.55,2.55,0,0,0-.18,1.65,1.94,1.94,0,0,0,1.1,1.28l21.62,7.88a.68.68,0,0,0,.56-.19c.18-.18.18-.18.18-.36h0v-.18Z"/><path class="cls-1" d="M8.51,4.85,8.14,5,1.36,6.14a3.25,3.25,0,0,0-1.28.91A1.94,1.94,0,0,0,.26,8.52a25.15,25.15,0,0,0,2.75,4Z"/></g></g></svg>