<svg xmlns="http://www.w3.org/2000/svg" viewBox="0 0 28.34 26.98"><defs><style>.cls-1{fill:#bcbec0;}</style></defs><title>Asset 3</title><g id="Layer_2" data-name="Layer 2"><g id="Layer_1-2" data-name="Layer 1"><path class="cls-1" d="M15.58,1.21h0M14.17,5.28l1.32,3.81a4.28,4.28,0,0,0,3.78,2.75l4,.08-3.21,2.43a3.93,3.93,0,0,0-1.17,1.46,4.19,4.19,0,0,0-.28,3l1.17,3.86L16.5,20.34a4.28,4.28,0,0,0-4.66,0L8.53,22.65l1.16-3.86a4.21,4.21,0,0,0-1.44-4.44L5,11.92l4-.08a3.83,3.83,0,0,0,1.47-.34,4.23,4.23,0,0,0,2.3-2.4l1.33-3.82m0-5.28c-.17,0-.35.19-.48.56l-.34,1L11,8.44A2.21,2.21,0,0,1,9.74,9.67,2,2,0,0,1,9,9.84L.7,10c-.8,0-.93.42-.3.9l.36.27L7,16a2.23,2.23,0,0,1,.74,2.26l-2.41,8c-.16.5-.06.79.22.79a1.13,1.13,0,0,0,.55-.23L13,22a2.25,2.25,0,0,1,2.38,0l6.05,4.21.79.55a1.09,1.09,0,0,0,.55.23c.27,0,.37-.29.22-.79l-2.41-8a2.19,2.19,0,0,1,.16-1.54,1.94,1.94,0,0,1,.57-.72l5.84-4.43.8-.61c.64-.48.51-.89-.29-.9l-8.33-.17a2.26,2.26,0,0,1-1.93-1.4L14.64.56c-.13-.37-.3-.56-.47-.56Z"/></g></g></svg>