<svg xmlns="http://www.w3.org/2000/svg" xmlns:xlink="http://www.w3.org/1999/xlink" width="24.042" height="17.735" viewBox="0 0 24.042 17.735">
  <defs>
    <clipPath id="clip-path">
      <rect id="Rectangle_3393" data-name="Rectangle 3393" width="24.042" height="17.735" fill="none"/>
    </clipPath>
  </defs>
  <g id="Group_12426" data-name="Group 12426" transform="translate(0 0)">
    <g id="Group_12425" data-name="Group 12425" transform="translate(0 0)" clip-path="url(#clip-path)">
      <path id="Path_14499" data-name="Path 14499" d="M30.549,7.375h0l-1.863,3.31-1.941,3.271,2.587-1.446v3.729c-.076,3.157-2.206,3-2.472,3H24.007c-.191,0-2.359.152-2.4-3V11.37H19.1V16.2c0,5.592,4.375,5.516,4.908,5.516H26.86c.532,0,4.982.076,4.982-5.516V12.51l2.511,1.446-1.9-3.271Z" transform="translate(-10.311 -3.982)" fill="#67cdfd" fill-rule="evenodd"/>
      <path id="Path_14500" data-name="Path 14500" d="M3.8,14.311,5.668,11.04l1.94-3.272L5.059,9.214V5.486c.038-3.157,2.169-3,2.435-3h2.853c.19,0,2.4-.152,2.435,3v4.869h2.473V5.523c0-5.63-4.375-5.554-4.908-5.516H7.494C6.962-.03,2.549-.106,2.549,5.523v3.69L0,7.768,1.9,11.04Z" transform="translate(0 0)" fill="#727270" fill-rule="evenodd"/>
    </g>
  </g>
</svg>
