<?xml version="1.0" encoding="UTF-8"?><svg xmlns="http://www.w3.org/2000/svg" viewBox="0 0 56.33 67"><defs><style>.d{fill:#ed1c24;}</style></defs><g id="a"/><g id="b"><g id="c"><g><g><path class="d" d="M26.98,21.61c-.07,.07-.15,.11-.22,.11H7.62c-.21,0-.31-.12-.31-.35v-1.41c0-.21,.1-.31,.31-.31H26.76c.07,0,.15,.03,.22,.1,.07,.07,.11,.14,.11,.21v1.41c0,.09-.04,.17-.11,.24Zm-3.11,8.5c-.07,.07-.13,.1-.21,.1h-1.89c-.09,0-.17-.03-.23-.1s-.1-.14-.1-.21v-4.27c0-.15-.03-.24-.09-.29-.06-.04-.17-.07-.33-.07H10.31c-.07,0-.14-.03-.21-.08-.07-.05-.1-.11-.1-.19v-1.54c0-.09,.03-.15,.1-.2s.13-.07,.21-.07h12.21c.56,0,.94,.11,1.14,.34s.31,.62,.31,1.18v5.17c0,.07-.03,.14-.1,.21Zm-13.09-12.49c-.23-.22-.34-.6-.34-1.14v-5.52c0-.54,.12-.92,.36-1.14,.24-.22,.64-.33,1.2-.33h11.62c.21,0,.31,.1,.31,.29v1.34c0,.19-.1,.29-.31,.29H13.25c-.13,0-.21,.01-.24,.03-.03,.02-.04,.11-.04,.25v1.1h10.32c.07,0,.15,.03,.22,.09,.07,.06,.11,.12,.11,.2v1.3c0,.09-.04,.16-.11,.21-.07,.05-.15,.08-.22,.08H12.97v1.06c0,.16,.01,.26,.04,.29,.03,.03,.12,.04,.29,.04h10.41c.25,0,.37,.1,.37,.29v1.28c0,.23-.12,.35-.37,.35H12c-.59,0-.99-.11-1.22-.33Z"/><path class="d" d="M39.19,12.4c-.1,1.33-.37,2.62-.81,3.86-.44,1.24-1.04,2.41-1.82,3.51-.77,1.1-1.7,2.13-2.78,3.08s-2.31,1.8-3.67,2.55c-.12,.06-.24,.08-.36,.08-.12,0-.22-.07-.3-.17l-.88-1.1c-.07-.1-.1-.21-.07-.31s.1-.19,.2-.25c2.18-1.2,3.95-2.67,5.3-4.43,1.35-1.76,2.17-3.63,2.46-5.63,.04-.29,.03-.49-.06-.58-.08-.09-.25-.14-.52-.14h-6.21c-.19,0-.29-.1-.29-.31v-1.54c0-.18,.1-.26,.29-.26h7.94c.66,0,1.1,.14,1.31,.41,.21,.27,.3,.69,.25,1.24Zm8.81,6.75c-.07,.06-.14,.09-.23,.09h-2.97v10.45c0,.19-.1,.29-.29,.29h-1.96c-.19,0-.29-.1-.29-.29V9.38c0-.19,.1-.29,.29-.29h1.96c.19,0,.29,.09,.29,.29v7.74h2.97c.09,0,.17,.03,.23,.08,.07,.05,.1,.11,.1,.19v1.54c0,.09-.03,.16-.1,.22Z"/><path class="d" d="M20.02,41.57c-.07,.07-.14,.1-.23,.1H8.19c-.09,0-.17-.04-.24-.11-.07-.07-.11-.16-.11-.26v-1.14c0-.07,.04-.15,.12-.22,.08-.07,.17-.11,.25-.11h11.57c.09,0,.16,.03,.23,.1,.07,.07,.1,.14,.1,.23v1.17c0,.1-.03,.19-.1,.25Zm-5.84,.78c.66,0,1.28,.08,1.86,.24,.58,.16,1.09,.39,1.52,.69s.77,.66,1.01,1.07c.24,.42,.36,.88,.36,1.39s-.12,1-.37,1.43c-.25,.42-.59,.79-1.01,1.09-.43,.3-.93,.53-1.51,.7-.58,.17-1.21,.25-1.88,.25s-1.28-.08-1.85-.25c-.57-.17-1.07-.4-1.5-.7s-.76-.66-1-1.09-.36-.9-.36-1.43,.12-.98,.36-1.39c.24-.42,.58-.77,1.01-1.07s.93-.53,1.51-.69,1.19-.24,1.85-.24Zm3-3.48c-.07,.07-.16,.11-.28,.11h-5.7c-.06,0-.13-.03-.21-.09-.08-.06-.12-.14-.12-.24v-1.17c0-.1,.04-.18,.12-.24,.08-.06,.15-.09,.21-.09h5.7c.1,0,.19,.04,.26,.11,.07,.07,.11,.15,.11,.24v1.12c0,.09-.03,.17-.1,.24Zm7.39,18.98c-.07,.07-.13,.1-.19,.1H12.66c-.57,0-.96-.11-1.18-.33-.21-.22-.32-.56-.32-1.03v-2.11c0-.47,.1-.81,.31-1.01,.21-.21,.59-.31,1.17-.31h8.73c.13,0,.21-.02,.24-.05,.03-.04,.04-.12,.04-.25v-.4c0-.16-.01-.26-.04-.29-.03-.03-.12-.04-.26-.04H11.43c-.07,0-.14-.03-.21-.08-.07-.05-.1-.11-.1-.19v-1.36c0-.07,.03-.14,.1-.21s.14-.1,.21-.1h11.18c.62,0,1.02,.1,1.22,.3,.2,.2,.3,.55,.3,1.07v2.05c0,.51-.1,.87-.3,1.07-.2,.2-.61,.3-1.22,.3H13.94c-.13,0-.21,.02-.24,.06-.03,.04-.04,.11-.04,.23v.51c0,.15,.01,.23,.04,.25,.03,.02,.12,.03,.26,.03h10.41c.07,0,.14,.03,.21,.08,.07,.05,.1,.12,.1,.21v1.32c0,.07-.03,.14-.1,.21Zm-10.39-13.63c-.69,0-1.26,.15-1.71,.44-.45,.29-.67,.66-.67,1.09,0,.47,.22,.85,.67,1.16,.45,.31,1.01,.46,1.71,.46s1.28-.15,1.72-.46c.44-.31,.66-.69,.66-1.16,0-.44-.22-.8-.66-1.09-.44-.29-1.01-.44-1.72-.44Zm13.14,.15c-.07,.06-.14,.09-.23,.09h-2.97v4.53c0,.07-.03,.14-.09,.21-.06,.07-.12,.1-.2,.1h-1.96c-.07,0-.14-.03-.2-.1-.06-.07-.09-.14-.09-.23v-11.59c0-.19,.1-.29,.29-.29h1.96c.19,0,.29,.09,.29,.29v4.97h2.97c.09,0,.17,.03,.23,.09,.07,.06,.1,.12,.1,.2v1.54c0,.07-.03,.14-.1,.2Z"/><path class="d" d="M39.85,43.3c0,.73-.13,1.42-.4,2.07-.26,.65-.63,1.21-1.11,1.68-.48,.48-1.04,.85-1.71,1.13s-1.39,.42-2.18,.42-1.51-.14-2.16-.42c-.65-.28-1.2-.66-1.67-1.13-.47-.48-.83-1.04-1.09-1.68-.26-.65-.38-1.33-.38-2.07s.13-1.38,.38-2.01c.26-.64,.62-1.2,1.09-1.69,.47-.49,1.03-.88,1.67-1.17,.64-.29,1.36-.43,2.16-.43s1.52,.14,2.18,.43c.66,.29,1.23,.67,1.71,1.17,.48,.49,.85,1.06,1.11,1.69,.26,.64,.4,1.31,.4,2.01Zm-2.51,.04c0-.43-.07-.83-.21-1.2-.14-.37-.34-.7-.59-.98-.26-.28-.56-.5-.91-.66-.35-.16-.74-.24-1.17-.24s-.81,.08-1.16,.24c-.34,.16-.64,.38-.89,.66-.25,.28-.44,.61-.58,.98s-.21,.77-.21,1.2,.07,.85,.21,1.23c.14,.38,.33,.71,.58,.99s.55,.5,.89,.66c.34,.16,.73,.24,1.16,.24s.81-.08,1.17-.24c.35-.16,.66-.38,.91-.66s.46-.61,.59-.99c.14-.38,.21-.79,.21-1.23Zm8.73,14.15c-.07,.04-.15,.07-.22,.07h-11.4c-.66,0-1.1-.12-1.33-.35-.23-.23-.34-.64-.34-1.21v-4.97c0-.07,.03-.14,.1-.21s.14-.1,.21-.1h1.91c.09,0,.17,.03,.23,.1,.07,.07,.1,.14,.1,.21v4.07c0,.15,.03,.24,.09,.29s.16,.07,.31,.07h10.12c.07,0,.15,.03,.22,.08,.07,.05,.11,.11,.11,.19v1.58c0,.09-.04,.15-.11,.2Zm-.57-5.85c0,.19-.1,.29-.29,.29h-1.96c-.19,0-.29-.1-.29-.31v-14.23c0-.19,.09-.29,.29-.29h1.96c.19,0,.29,.09,.29,.29v14.26Z"/></g><path class="d" d="M55.33,1V58.58c0,4.09-3.33,7.42-7.42,7.42H1V8.42C1,4.33,4.33,1,8.42,1H55.33m1-1H8.42C3.79,0,0,3.79,0,8.42v58.58H47.92c4.63,0,8.42-3.79,8.42-8.42V0h0Z"/></g></g></g></svg>