<svg xmlns="http://www.w3.org/2000/svg" viewBox="0 0 32.9 31.32"><defs><style>.cls-1{fill:#fdb913;}</style></defs><title>Asset 1</title><g id="Layer_2" data-name="Layer 2"><g id="Layer_1-2" data-name="Layer 1"><path class="cls-1" d="M9,21.15l-2.8,9.26c-.27.88.13,1.18.89.65l8-5.53a2.59,2.59,0,0,1,2.76,0l7,4.89.92.64c.76.53,1.16.23.89-.65l-2.8-9.26a2.55,2.55,0,0,1,.19-1.79,2.31,2.31,0,0,1,.66-.84l6.78-5.14.93-.71c.74-.56.59-1-.34-1.05l-9.67-.2A2.61,2.61,0,0,1,20.18,9.8L17,.65c-.3-.87-.8-.87-1.1,0l-.4,1.14-2.78,8a2.55,2.55,0,0,1-1.41,1.42,2.06,2.06,0,0,1-.83.2l-9.67.2c-.93,0-1.08.49-.34,1.05L.88,13l7.3,5.54A2.59,2.59,0,0,1,9,21.15Z"/></g></g></svg>