<?xml version="1.0" encoding="UTF-8"?><svg id="Layer_2" xmlns="http://www.w3.org/2000/svg" viewBox="0 0 18.79 15.35"><defs><style>.cls-1{fill:#6d6e71;}</style></defs><g id="Layer_1-2"><path class="cls-1" d="M16.6,2.68c-.11-.18-.13-.28-.54-.3h-2.79V0H0V10.66H.17l.14,.79c-.5,1.01-.34,2.27,.5,3.11,1.06,1.06,2.77,1.06,3.83,0,.84-.84,1-2.1,.5-3.11h6.96v-.03h.72c-.52,1.02-.37,2.29,.49,3.14,1.06,1.06,2.77,1.06,3.83,0,.85-.85,1.01-2.12,.49-3.14h1.04c.07,0,.12-.05,.12-.12h0V6.76l-2.2-4.07Zm-4.36-1.65v1.52c-.04,.05-.08,.09-.09,.17l-.03,6.88H1.04V1.04H12.23Zm5.18,9.16s-2.46-1.04-3.92-.68l-.03-5.68c0-.11,.03-.18,.11-.19h2.05c.18,0,.25,.01,.37,.25l1.43,2.81v3.48Z"/></g></svg>