<?xml version="1.0" encoding="UTF-8"?><svg xmlns="http://www.w3.org/2000/svg" viewBox="0 0 15.09 13.28"><defs><style>.d{fill:#6d6e71;}</style></defs><g id="a"/><g id="b"><g id="c"><path class="d" d="M15.09,4.17C15.16,1.93,13.4,.07,11.16,0c-.04,0-.08,0-.12,0-1.45,0-2.73,.77-3.45,1.93,0-.02-.02-.03-.03-.05v-.02l-.03-.02v.05s-.02,.03-.03,.05c-.72-1.16-2-1.93-3.45-1.93-.04,0-.08,0-.12,0C1.7,.07-.06,1.93,0,4.17,0,4.17-.11,9.48,7.53,13.26v.02h.03v-.02c7.64-3.79,7.53-9.09,7.53-9.09Zm-7.55,7.98C1.07,8.76,1,4.38,1,4.2v-.05c-.05-1.68,1.28-3.09,2.96-3.14h.09c1.07,0,2.04,.54,2.6,1.45l.88,1.43v.02l.03,.02v-.05l.88-1.43c.56-.91,1.53-1.45,2.6-1.45h.09c1.68,.05,3.01,1.46,2.96,3.14v.05c0,.18-.06,4.56-6.55,7.95Z"/></g></g></svg>