<?xml version="1.0" encoding="UTF-8"?><svg xmlns="http://www.w3.org/2000/svg" viewBox="0 0 14.71 17.38"><defs><style>.d{fill:#6d6e71;}</style></defs><g id="a"/><g id="b"><g id="c"><g><path class="d" d="M4.81,1.57s.06,0,.09,0c.06,0,.11,0,.17,0,.87,0,1.62,.66,1.44,1.61-.11,.59,.38,.97,.84,.97,.3,0,.58-.17,.66-.56C8.34,1.75,7.05,0,5.18,0c-.09,0-.19,0-.29,.01-.95,.09-.99,1.55-.09,1.55Z"/><path class="d" d="M13.95,5.65c-.1-.14-.21-.26-.33-.38-.82-.79-2.03-1.12-3.25-1.12-1.1,0-2.21,.27-3.05,.71,0,0,0,0-.02,0-.12,0-.65-.28-.73-.31-.64-.22-1.32-.36-2-.38-.07,0-.15,0-.23,0-1.61,0-3.48,.61-4.05,2.25C-.15,7.67-.01,9.15,.21,10.42c.41,2.36,1.59,6.11,4.23,6.85,.24,.07,.48,.1,.71,.1,.78,0,1.53-.35,2.16-.85,.72,.58,1.43,.83,2.1,.83,3.95,0,6.72-8.79,4.54-11.7Zm-1.45,7.88c-.88,1.76-2.04,2.82-3.08,2.82-.47,0-.96-.21-1.47-.61l-.62-.5-.62,.5c-.36,.29-.92,.63-1.53,.63-.15,0-.3-.02-.44-.06-1.91-.54-3.07-3.49-3.52-6.06-.17-.98-.35-2.4,.03-3.5,.41-1.16,1.93-1.58,3.11-1.58,.06,0,.13,0,.19,0,.55,.02,1.12,.13,1.68,.31l.11,.05c.43,.21,.69,.33,.98,.33h.26l.22-.12c.7-.37,1.67-.6,2.58-.6,1.09,0,2,.3,2.56,.84,.08,.08,.16,.17,.23,.26,.97,1.3,.67,4.64-.65,7.29Z"/></g></g></g></svg>