<svg id="lang_icon" xmlns="http://www.w3.org/2000/svg" width="17.833" height="17.833" viewBox="0 0 17.833 17.833">
  <path id="Path_13517" fill="#999d9e" data-name="Path 13517" d="M15.221,2.612a8.917,8.917,0,0,0-12.61,12.61,8.917,8.917,0,0,0,12.61-12.61Zm-.074,11a11.118,11.118,0,0,0-1.67-.933,14.982,14.982,0,0,0,.445-3.2H16.7A7.759,7.759,0,0,1,15.147,13.607ZM1.135,9.474H3.911a14.985,14.985,0,0,0,.445,3.2,11.115,11.115,0,0,0-1.67.933A7.759,7.759,0,0,1,1.135,9.474ZM2.686,4.226a11.112,11.112,0,0,0,1.67.933,14.984,14.984,0,0,0-.445,3.2H1.135A7.76,7.76,0,0,1,2.686,4.226Zm9.875-1.483a7.536,7.536,0,0,0-.66-1.035A7.829,7.829,0,0,1,14.408,3.38a9.994,9.994,0,0,1-1.259.7A10.011,10.011,0,0,0,12.561,2.743ZM12.109,4.5a10.024,10.024,0,0,1-3.193.517A10.024,10.024,0,0,1,5.724,4.5c.713-2.029,1.89-3.384,3.193-3.384S11.4,2.47,12.109,4.5ZM5.026,8.359a13.97,13.97,0,0,1,.381-2.79,11.139,11.139,0,0,0,3.509.561,11.139,11.139,0,0,0,3.509-.561,13.968,13.968,0,0,1,.381,2.79Zm7.781,1.115a13.971,13.971,0,0,1-.381,2.791,11.249,11.249,0,0,0-7.019,0,13.969,13.969,0,0,1-.381-2.791ZM5.272,2.743a10.022,10.022,0,0,0-.588,1.34,9.992,9.992,0,0,1-1.259-.7A7.827,7.827,0,0,1,5.932,1.708,7.535,7.535,0,0,0,5.272,2.743ZM4.684,13.75a10.019,10.019,0,0,0,.588,1.34,7.536,7.536,0,0,0,.66,1.035,7.828,7.828,0,0,1-2.507-1.672,10,10,0,0,1,1.259-.7Zm1.04-.416a10.121,10.121,0,0,1,6.385,0c-.713,2.029-1.89,3.384-3.193,3.384s-2.48-1.355-3.193-3.384Zm6.837,1.755a10.019,10.019,0,0,0,.588-1.34,10,10,0,0,1,1.259.7A7.828,7.828,0,0,1,11.9,16.125,7.533,7.533,0,0,0,12.561,15.09Zm1.362-6.73a14.984,14.984,0,0,0-.445-3.2,11.111,11.111,0,0,0,1.67-.933A7.759,7.759,0,0,1,16.7,8.359Z" transform="translate(0)"/>
</svg>
