<?xml version="1.0" encoding="utf-8"?>
<!-- Generator: Adobe Illustrator 23.0.5, SVG Export Plug-In . SVG Version: 6.00 Build 0)  -->
<svg version="1.1" id="Layer_1" xmlns="http://www.w3.org/2000/svg" xmlns:xlink="http://www.w3.org/1999/xlink" x="0px" y="0px"
	 viewBox="0 0 120.6 39.7" style="enable-background:new 0 0 120.6 39.7;" xml:space="preserve">
<style type="text/css">
	.st0{fill:#EF4130;}
</style>
<g id="XMLID_2971_">
	<g>
		<g id="XMLID_250_">
			<path id="XMLID_263_" class="st0" d="M29.5,9.1c-4.3,0-7.8,3.4-7.8,7.7c0,4.2,3.5,7.7,7.8,7.7c4.3,0,7.8-3.4,7.8-7.7
				C37.2,12.6,33.7,9.1,29.5,9.1z M29.5,20.9c-2.3,0-4.1-1.8-4.1-4.1c0-2.3,1.9-4.1,4.1-4.1c2.3,0,4.2,1.8,4.2,4.1
				C33.6,19.1,31.7,20.9,29.5,20.9z"/>
			<path id="XMLID_260_" class="st0" d="M17.3,16.8c0-4.2-3.5-7.7-7.8-7.7c-4.3,0-7.8,3.4-7.8,7.7c0,3.6,2.5,6.7,6,7.5v8.4h3.6v-8.4
				C14.8,23.5,17.3,20.4,17.3,16.8z M9.6,20.9c-2.3,0-4.1-1.8-4.1-4.1c0-2.3,1.9-4.1,4.1-4.1c2.3,0,4.1,1.8,4.1,4.1
				C13.7,19.1,11.8,20.9,9.6,20.9z"/>
			<path id="XMLID_257_" class="st0" d="M73.3,23.4l2,2l2.5-2.5l-2-2c1.9-3,1.5-6.9-1.1-9.5c-3-3-7.9-3-11,0c-3,3-3,7.9,0,10.9
				C66.4,24.8,70.4,25.2,73.3,23.4z M66.4,13.9c1.6-1.6,4.2-1.6,5.9,0c1.6,1.6,1.6,4.2,0,5.8c-1.6,1.6-4.2,1.6-5.9,0
				C64.8,18.1,64.8,15.5,66.4,13.9z"/>
			<path id="XMLID_256_" class="st0" d="M57.1,16.8c0-3.6-2.5-6.7-6-7.5V1.9h-3.6v7.4c-3.4,0.8-6,3.8-6,7.5c0,0.1,0,7.7,0,7.7h3.6
				l0-7.7l0,0c0,0,0,0,0,0c0-2.3,1.9-4.1,4.2-4.1c2.3,0,4.1,1.8,4.1,4.1c0,0,0,0,0,0h0l0,7.7h3.6C57.1,24.5,57.1,16.9,57.1,16.8z"/>
			<path id="XMLID_255_" class="st0" d="M97,16.8c0-4.2-3.5-7.6-7.8-7.6c-4.3,0-7.7,3.4-7.8,7.6h0v7.7h3.6v-7.7h0c0-2.2,1.9-4,4.1-4
				c2.3,0,4.1,1.8,4.1,4l0,0v7.7H97L97,16.8L97,16.8z"/>
			<path id="XMLID_251_" class="st0" d="M112.7,23.7c0.6-0.4,1.3-0.8,1.8-1.4c2.6-2.6,2.9-6.5,1.1-9.5l2-2l-2.5-2.5l-2,2
				c-3-1.9-6.9-1.5-9.5,1.1c-3,3-3,7.9,0,11c0.6,0.6,1.2,1,1.9,1.4c-2.5,1.3-4.1,3.8-4.1,6.8c0,4.2,3.5,7.7,7.8,7.7
				c4.3,0,7.8-3.4,7.8-7.7C116.9,27.6,115.2,25,112.7,23.7z M106.2,13.9c1.6-1.6,4.2-1.6,5.8,0c1.6,1.6,1.6,4.2,0,5.9
				c-1.6,1.6-4.2,1.6-5.8,0C104.6,18.2,104.6,15.6,106.2,13.9z M109.2,34.6c-2.3,0-4.1-1.8-4.1-4.1c0-2.3,1.9-4.1,4.1-4.1
				c2.3,0,4.1,1.8,4.1,4.1C113.3,32.8,111.4,34.6,109.2,34.6z"/>
		</g>
		<g id="XMLID_233_">
			<g id="XMLID_241_">
				<path id="XMLID_247_" class="st0" d="M82.3,33c-1.7,0-3.1,1.3-3.1,2.8c0,1.6,1.4,2.8,3.1,2.8c1.7,0,3.1-1.3,3.1-2.8
					C85.4,34.3,84,33,82.3,33z M82.3,37.4c-0.9,0-1.6-0.7-1.6-1.5c0-0.8,0.7-1.5,1.6-1.5c0.9,0,1.6,0.7,1.6,1.5
					C83.8,36.7,83.1,37.4,82.3,37.4z"/>
				<path id="XMLID_245_" class="st0" d="M85.6,29.4v-1.9H84v5h1.6v-1.7h1.3v-1.5H85.6z"/>
				<path id="XMLID_242_" class="st0" d="M82.2,27.9c0,0-2.1,0-2.3,0v-1h-1.6v1c-0.2,0-2.3,0-2.3,0v1.3h0.8
					c-0.3,0.4-0.5,0.9-0.5,1.4c0,1.4,1.2,2.5,2.7,2.5c1.5,0,2.7-1.1,2.7-2.5c0-0.5-0.2-1-0.5-1.4h0.8V27.9z M79.1,31.8
					c-0.7,0-1.2-0.5-1.2-1.2c0-0.6,0.5-1.2,1.2-1.2c0.7,0,1.2,0.5,1.2,1.2C80.4,31.3,79.8,31.8,79.1,31.8z"/>
			</g>
			<g id="XMLID_238_">
				<rect id="XMLID_240_" x="95.1" y="27.2" class="st0" width="1.6" height="10.6"/>
				<path id="XMLID_239_" class="st0" d="M91.4,28.8v-1.1h-1.6v1.1c0,4.1-2.7,5.3-2.7,5.3l1,1.2c0,0,1.7-1.1,2.4-2.7
					c0.7,1.6,2.4,2.7,2.4,2.7l1-1.2C94.1,34.1,91.4,32.9,91.4,28.8z"/>
			</g>
			<path id="XMLID_237_" class="st0" d="M70.2,35.7V34h-1.6v1.7c-0.3,0-4.2,0-4.2,0v1.5h10.2v-1.5C74.6,35.7,70.5,35.7,70.2,35.7z"
				/>
			<path id="XMLID_234_" class="st0" d="M70.2,33.4c0.2,0,3.5,0,3.5,0v-1.5c0,0-1.1,0-1.3,0v-2.7c0.2,0,1.3,0,1.3,0v-1.5h-8.4v1.5
				c0,0,1.1,0,1.3,0v2.7c-0.2,0-1.3,0-1.3,0v1.5c0,0,3.2,0,3.4,0H70.2z M68.1,29.2h2.6v2.7h-2.6V29.2z"/>
		</g>
	</g>
</g>
</svg>
