<svg xmlns="http://www.w3.org/2000/svg" viewBox="0 0 29.19 30.13"><defs><style>.cls-1{fill:#939598;}</style></defs><title>Asset 1</title><g id="Layer_2" data-name="Layer 2"><g id="Layer_1-2" data-name="Layer 1"><path class="cls-1" d="M14.59,3.88c0,.22,0,.46.05.71a.45.45,0,0,0,0,.11A2.5,2.5,0,0,0,16.13,7c3.25,1.42,5.9,6.79,6.59,13.35a2.62,2.62,0,0,0,.33,1L25,25H16.87A2.49,2.49,0,0,0,15,26a2.56,2.56,0,0,0-.58,1.68h-.16a2.55,2.55,0,0,0-.57-1.69A2.48,2.48,0,0,0,11.72,25H4.18l2-3.62a2.55,2.55,0,0,0,.33-1C7.15,13.83,9.8,8.46,13.06,7a2.5,2.5,0,0,0,1.49-2.29V4.57c0-.25,0-.48,0-.69m0-3.88c-1.67,0-2.54,2.33-2.54,4.64v.11C8,6.54,4.77,12.56,4,20.13H4l-4,7.4H11.72a2,2,0,0,0,0,.35,2.45,2.45,0,0,0,2.62,2.25,2.45,2.45,0,0,0,2.61-2.25,2,2,0,0,0,0-.35H29.19l-4-7.4h0c-.8-7.57-4-13.59-8.08-15.38,0,0,0-.08,0-.11,0-2.31-.88-4.64-2.55-4.64Z"/></g></g></svg>