<svg xmlns="http://www.w3.org/2000/svg" viewBox="0 0 19.2 19.08"><defs><style>.cls-1{fill:#939598;fill-rule:evenodd;}</style></defs><title>Asset 4</title><g id="Layer_2" data-name="Layer 2"><g id="Layer_1-2" data-name="Layer 1"><path class="cls-1" d="M13.83,11.29a8,8,0,0,0,1.09-3.77A7.56,7.56,0,0,0,7.4,0,7.45,7.45,0,0,0,0,7.52a7.35,7.35,0,0,0,7.4,7.41,7.82,7.82,0,0,0,4.12-1.22l4.85,5s1.54.91,2.44-.05,0-2.38,0-2.38Zm-6.19.85A4.77,4.77,0,0,1,2.79,7.4,4.86,4.86,0,0,1,7.64,2.55,4.76,4.76,0,0,1,12.37,7.4a4.91,4.91,0,0,1-1,2.91,2.05,2.05,0,0,1-.72.73,4.25,4.25,0,0,1-3,1.1Z"/></g></g></svg>